<svg width="32" height="32" viewBox="0 0 32 32" fill="none" xmlns="http://www.w3.org/2000/svg">
<rect width="32" height="32" rx="6" fill="black"/>
<path d="M15.6687 16.167C15.6687 17.2197 15.4682 18.1038 15.0672 18.8193C14.6661 19.5348 14.0691 20.0771 13.2762 20.4463C12.4878 20.8154 11.5102 21 10.3436 21H5.97539L7.33574 11.5254H10.8221C11.6469 11.5254 12.367 11.6484 12.9822 11.8945C13.602 12.1406 14.1102 12.4801 14.5066 12.9131C14.9031 13.346 15.1948 13.8405 15.3816 14.3965C15.573 14.9479 15.6687 15.5381 15.6687 16.167ZM13.201 16.2012C13.201 15.7272 13.1098 15.2669 12.9275 14.8203C12.7498 14.3737 12.4194 13.9954 11.9363 13.6855C11.4533 13.3711 10.7833 13.2139 9.92656 13.2139H9.53691L8.65508 19.3047H9.92656C10.5327 19.3047 11.0522 19.2135 11.4852 19.0312C11.9227 18.849 12.2645 18.6074 12.5105 18.3066C12.7612 18.0013 12.9389 17.6709 13.0437 17.3154C13.1486 16.96 13.201 16.5885 13.201 16.2012ZM23.3838 17.2607C23.3838 17.8122 23.2835 18.3294 23.083 18.8125C22.8825 19.291 22.6068 19.7012 22.2559 20.043C21.9049 20.3848 21.4902 20.6514 21.0117 20.8428C20.5332 21.0296 20.0273 21.123 19.4941 21.123C18.8652 21.123 18.2796 20.9863 17.7373 20.7129C17.195 20.4349 16.7643 20.0384 16.4453 19.5234C16.1263 19.0085 15.9668 18.4183 15.9668 17.7529C15.9668 17.2471 16.0693 16.7617 16.2744 16.2969C16.4795 15.8275 16.7643 15.415 17.1289 15.0596C17.498 14.6995 17.9287 14.4193 18.4209 14.2188C18.9131 14.0182 19.4395 13.918 20 13.918C20.5879 13.918 21.1393 14.0433 21.6543 14.2939C22.1693 14.54 22.5863 14.9137 22.9053 15.415C23.2243 15.9163 23.3838 16.5316 23.3838 17.2607ZM21.0596 17.2197C21.0596 16.7959 20.9456 16.4655 20.7178 16.2285C20.4945 15.9915 20.2074 15.873 19.8564 15.873C19.4919 15.873 19.1934 15.9801 18.9609 16.1943C18.7285 16.4085 18.5576 16.6683 18.4482 16.9736C18.3434 17.2744 18.291 17.557 18.291 17.8213C18.291 18.1995 18.4027 18.5186 18.626 18.7783C18.8493 19.0381 19.1478 19.168 19.5215 19.168C19.8177 19.168 20.0843 19.0723 20.3213 18.8809C20.5583 18.6895 20.7406 18.4434 20.8682 18.1426C20.9958 17.8372 21.0596 17.5296 21.0596 17.2197ZM27.51 12.4209C27.51 12.6533 27.4826 12.8926 27.4279 13.1387C27.3778 13.3848 27.3026 13.6855 27.2023 14.041L26.1223 17.8213H24.6799L24.8029 13.4258C24.8485 12.8288 24.91 12.4186 24.9875 12.1953C25.0604 11.9948 25.2017 11.8125 25.4113 11.6484C25.6255 11.4798 25.924 11.3955 26.3068 11.3955C26.7352 11.3955 27.0428 11.5026 27.2297 11.7168C27.4165 11.9264 27.51 12.1611 27.51 12.4209ZM26.5529 19.7012C26.5529 19.9564 26.4891 20.1934 26.3615 20.4121C26.2339 20.6309 26.0607 20.804 25.842 20.9316C25.6232 21.0592 25.3863 21.123 25.1311 21.123C24.8713 21.123 24.632 21.0592 24.4133 20.9316C24.1945 20.804 24.0214 20.6309 23.8937 20.4121C23.7661 20.1934 23.7023 19.9564 23.7023 19.7012C23.7023 19.4414 23.7661 19.2021 23.8937 18.9834C24.0214 18.7646 24.1945 18.5915 24.4133 18.4639C24.632 18.3363 24.8713 18.2725 25.1311 18.2725C25.3863 18.2725 25.6232 18.3363 25.842 18.4639C26.0607 18.5915 26.2339 18.7646 26.3615 18.9834C26.4891 19.2021 26.5529 19.4414 26.5529 19.7012Z" fill="white"/>
</svg>
