<svg width="32" height="32" viewBox="0 0 32 32" fill="none" xmlns="http://www.w3.org/2000/svg">
<rect width="32" height="32" rx="6" fill="#1DA1F2"/>
<g clip-path="url(#clip0)">
<path d="M11.91 24.89C20.21 24.89 24.75 18.01 24.75 12.05C24.75 11.86 24.75 11.66 24.74 11.47C25.62 10.84 26.39 10.04 26.99 9.13C26.18 9.49 25.31 9.73 24.39 9.84C25.32 9.29 26.04 8.4 26.38 7.34C25.51 7.86 24.54 8.23 23.51 8.43C22.7 7.55 21.52 7 20.23 7C17.74 7 15.71 9.02 15.71 11.52C15.71 11.87 15.75 12.22 15.82 12.55C12.08 12.36 8.75 10.56 6.52 7.83C6.14 8.5 5.92 9.27 5.92 10.1C5.92 11.67 6.72 13.05 7.93 13.86C7.18 13.83 6.49 13.63 5.88 13.29C5.88 13.31 5.88 13.33 5.88 13.35C5.88 15.53 7.44 17.36 9.5 17.78C9.12 17.89 8.73 17.94 8.31 17.94C8.02 17.94 7.74 17.91 7.46 17.86C8.03 19.66 9.7 20.96 11.68 20.99C10.13 22.2 8.19 22.93 6.07 22.93C5.71 22.93 5.35 22.91 5 22.87C6.99 24.14 9.37 24.89 11.91 24.89Z" fill="white"/>
</g>
<defs>
<clipPath id="clip0">
<rect width="22" height="17.89" fill="white" transform="translate(5 7)"/>
</clipPath>
</defs>
</svg>
